# xmcd
#
# Track frame offsets:
#	150
#	20591
#	42707
#	67377
#	88877
#	116720
#	136174
#	163240
#	179448
#	206071
#	279087
#
# Disc length: 3947 seconds
# Revision: 0
# Processed by: cddbd v1.5.2PL0 Copyright (c) Steve Scherf et al.
# Submitted via: dBpowerAMP V12.0
#
DISCID=ac0f690b
DTITLE=Solution .45 - For Aeons Past
DYEAR=2010
DGENRE=Metal
TTITLE0=The Close Beyond
TTITLE1=Gravitational Lensing
TTITLE2=Through Night-Kingdomed Gates
TTITLE3=For Aeons Past
TTITLE4=Lethean Tears
TTITLE5=Bladed Vaults
TTITLE6=Wirethrone
TTITLE7=On Embered Fields Adust
TTITLE8=Into Shadow
TTITLE9=Clandestinity Now
TTITLE10=Spirit Side Dreaming
EXTD=
EXTT0=
EXTT1=
EXTT2=
EXTT3=
EXTT4=
EXTT5=
EXTT6=
EXTT7=
EXTT8=
EXTT9=
EXTT10=
PLAYORDER=
